:FULLY-SPECIFIED
:FORCE-ALL-JOINTS-BE-3DOF
:DEGREES
781
root 1.6931 16.3244 18.6791 -66.723 85.2134 -77.1315
lfemur -45.7138 19.4078 -19.4033
ltibia 60.1589 -0 0
lfoot -26.8929 23.1431 -0.0968691
ltoes 23.4058 -0 0
rfemur -18.6196 -27.9112 26.425
rtibia 59.7998 -0 0
rfoot -23.1246 -39.5465 -0.136014
rtoes -27.3694 0 0
lowerback 1.33901 5.50676 -1.22529
upperback -1.21532 7.31379 -4.58548
thorax -1.61932 3.67524 -4.18086
lowerneck -6.3031 -7.97922 -1.00275
upperneck -3.28129 -10.4484 6.42958
head 0.38782 -5.14534 1.94141
lclavicle 4.25825e-14 -4.99802e-15 0
lhumerus -63.8359 -11.1848 103.38
lradius 79.3977 -0 0
lwrist 15.0398 0 0
lhand -23.104 -6.19327 0.0346682
lfingers 7.12502 0 0
lthumb 7.90131 28.9 0.0324576
rclavicle 4.25825e-14 -4.99802e-15 0
rhumerus -38.5041 45.3154 -123.069
rradius 88.5546 -0 0
rwrist 7.51612 0 0
rhand -27.2802 -24.1174 -0.00383564
rfingers 7.12502 0 0
rthumb 3.80651 -57.9784 -0.00553586
782
root 1.68551 16.3422 18.7737 -62.7472 85.2161 -74.2742
lfemur -46.3024 19.3962 -19.5893
ltibia 60.887 -0 0
lfoot -27.1772 23.14 -0.114744
ltoes 23.644 -0 0
rfemur -18.8713 -28.0226 26.8091
rtibia 60.1727 -0 0
rfoot -23.7338 -40.0151 -0.199745
rtoes -28.0283 0 0
lowerback 1.34867 5.57506 -1.1827
upperback -1.22758 7.40458 -4.63535
thorax -1.6283 3.7203 -4.25583
lowerneck -6.40677 -8.05284 -0.994305
upperneck -3.32652 -10.5447 6.48923
head 0.391655 -5.19407 1.95643
lclavicle 3.47779e-14 -4.54365e-15 0
lhumerus -64.5774 -11.1297 104.071
lradius 80.1719 -0 0
lwrist 15.428 0 0
lhand -23.2992 -6.16126 0.0372365
lfingers 7.12502 0 0
lthumb 8.14624 29.417 0.0348638
rclavicle 3.47779e-14 -4.54365e-15 0
rhumerus -39.5294 44.9761 -123.957
rradius 89.1741 -0 0
rwrist 7.61889 0 0
rhand -27.7364 -24.5906 -0.00532456
rfingers 7.12502 0 0
rthumb 3.78682 -58.766 -0.00729457
783
root 1.67793 16.36 18.8682 -51.8931 84.9961 -65.1414
lfemur -46.2554 19.2386 -19.493
ltibia 60.8598 -0 0
lfoot -27.071 22.9941 -0.126524
ltoes 23.6178 -0 0
rfemur -18.8051 -27.865 26.7814
rtibia 59.8387 -0 0
rfoot -24.0299 -40.0984 -0.271393
rtoes -28.3893 0 0
lowerback 1.32883 5.55936 -1.1384
upperback -1.22698 7.38411 -4.62537
thorax -1.61382 3.70941 -4.26764
lowerneck -6.40704 -8.01534 -0.977864
upperneck -3.32969 -10.4963 6.46231
head 0.386945 -5.17063 1.94677
lclavicle 2.69732e-14 -4.08929e-15 0
lhumerus -64.586 -11.1222 104.059
lradius 80.2098 -0 0
lwrist 15.5034 0 0
lhand -23.1719 -6.08425 0.036323
lfingers 7.12502 0 0
lthumb 8.24835 29.4655 0.0341088
rclavicle 2.69732e-14 -4.08929e-15 0
rhumerus -39.6644 44.9208 -123.997
rradius 89.0624 -0 0
rwrist 7.61542 0 0
rhand -27.793 -24.654 -0.00676242
rfingers 7.12502 0 0
rthumb 3.70788 -58.8096 -0.00892321
784
root 1.67034 16.3778 18.9627 -38.8152 84.3694 -52.5636
lfemur -45.6708 18.958 -19.1584
ltibia 60.191 -0 0
lfoot -26.6343 22.7287 -0.133269
ltoes 23.3682 -0 0
rfemur -18.4701 -27.4792 26.406
rtibia 58.9023 -0 0
rfoot -24.0564 -39.8535 -0.350099
rtoes -28.4939 0 0
lowerback 1.28434 5.47297 -1.09306
upperback -1.21545 7.27002 -4.56465
thorax -1.57963 3.65144 -4.22572
lowerneck -6.31981 -7.88413 -0.954704
upperneck -3.29696 -10.326 6.36233
head 0.375143 -5.08631 1.9163
lclavicle 1.91685e-14 -3.63492e-15 0
lhumerus -63.9743 -11.1545 103.453
lradius 79.6244 -0 0
lwrist 15.3131 0 0
lhand -22.7725 -5.96988 0.0326628
lfingers 7.12502 0 0
lthumb 8.22839 29.1173 0.0308559
rclavicle 1.91685e-14 -3.63492e-15 0
rhumerus -39.0463 45.1048 -123.323
rradius 88.3286 -0 0
rwrist 7.5215 0 0
rhand -27.5097 -24.37 -0.00809476
rfingers 7.12502 0 0
rthumb 3.58129 -58.2239 -0.0104001
785
root 1.66276 16.3956 19.0572 -27.7098 83.1848 -40.152
lfemur -44.6435 18.5756 -18.6318
ltibia 58.9822 -0 0
lfoot -25.9304 22.3658 -0.136155
ltoes 22.9371 -0 0
rfemur -17.9201 -26.9024 25.7511
rtibia 57.4578 -0 0
rfoot -23.8606 -39.3359 -0.434891
rtoes -28.385 0 0
lowerback 1.22053 5.33032 -1.04693
upperback -1.19505 7.08136 -4.46302
thorax -1.52975 3.55603 -4.14046
lowerneck -6.16256 -7.67784 -0.926045
upperneck -3.23505 -10.0577 6.20381
head 0.357836 -4.95325 1.8691
lclavicle 1.13639e-14 -3.18056e-15 0
lhumerus -62.8399 -11.2179 102.319
lradius 78.5021 -0 0
lwrist 14.9096 0 0
lhand -22.1541 -5.8254 0.0270094
lfingers 7.12502 0 0
lthumb 8.10981 28.4481 0.0257583
rclavicle 1.13639e-14 -3.18056e-15 0
rhumerus -37.8361 45.4894 -121.999
rradius 87.0502 -0 0
rwrist 7.35429 0 0
rhand -26.9489 -23.8049 -0.00929048
rfingers 7.12502 0 0
rthumb 3.41909 -57.1124 -0.0117139
786
root 1.65517 16.4133 19.1517 -19.7422 81.4173 -30.1395
lfemur -43.2685 18.1121 -17.9607
ltibia 57.3318 -0 0
lfoot -25.0238 21.9265 -0.136398
ltoes 22.3672 -0 0
rfemur -17.2104 -26.1713 24.8863
rtibia 55.5984 -0 0
rfoot -23.4916 -38.6008 -0.524668
rtoes -28.1071 0 0
lowerback 1.14282 5.1462 -1.00002
upperback -1.16784 6.83766 -4.33052
thorax -1.46826 3.43303 -4.02265
lowerneck -5.95339 -7.41551 -0.893062
upperneck -3.15089 -9.71605 6.00158
head 0.336648 -4.78386 1.80935
lclavicle 3.5592e-15 -2.72619e-15 0
lhumerus -61.2763 -11.3028 100.706
lradius 76.9194 -0 0
lwrist 14.3476 0 0
lhand -21.3707 -5.65772 0.0200969
lfingers 7.12502 0 0
lthumb 7.91737 27.5355 0.0194499
rclavicle 3.5592e-15 -2.72619e-15 0
rhumerus -36.2034 46.0349 -120.049
rradius 85.2925 -0 0
rwrist 7.13151 0 0
rhand -26.1751 -23.0276 -0.0103413
rfingers 7.12502 0 0
rthumb 3.23319 -55.5761 -0.0128635
787
root 1.64759 16.4311 19.2462 -14.3197 79.135 -22.819
lfemur -41.6434 17.5887 -17.1919
ltibia 55.3429 -0 0
lfoot -23.9793 21.4318 -0.135181
ltoes 21.7013 -0 0
rfemur -16.3956 -25.3239 23.8813
rtibia 53.4227 -0 0
rfoot -22.9995 -37.7041 -0.618196
rtoes -27.7053 0 0
lowerback 1.05652 4.93522 -0.952202
upperback -1.13592 6.55821 -4.17712
thorax -1.39914 3.29214 -3.88304
lowerneck -5.71018 -7.11592 -0.856876
upperneck -3.05138 -9.32541 5.77023
head 0.313154 -4.59036 1.74116
lclavicle -4.24546e-15 -2.27183e-15 0
lhumerus -59.3807 -11.3979 98.6613
lradius 74.9552 -0 0
lwrist 13.6816 0 0
lhand -20.4759 -5.47353 0.0126102
lfingers 7.12502 0 0
lthumb 7.67596 26.4576 0.0125341
rclavicle -4.24546e-15 -2.27183e-15 0
rhumerus -34.3156 46.6956 -117.485
rradius 83.1236 -0 0
rwrist 6.8708 0 0
rhand -25.2531 -22.1072 -0.0112619
rfingers 7.12502 0 0
rthumb 3.03495 -53.7198 -0.0138614
788
root 1.64 16.4489 19.3407 -10.6215 76.4432 -17.6315
lfemur -39.8689 17.0266 -16.3708
ltibia 53.128 -0 0
lfoot -22.8604 20.9027 -0.133603
ltoes 20.9813 -0 0
rfemur -15.5279 -24.4 22.8035
rtibia 51.0394 -0 0
rfoot -22.4343 -36.7033 -0.714131
rtoes -27.2259 0 0
lowerback 0.966533 4.71129 -0.903297
upperback -1.10131 6.26143 -4.0124
thorax -1.32618 3.14265 -3.732
lowerneck -5.45007 -6.79705 -0.818561
upperneck -2.94325 -8.90912 5.52374
head 0.288822 -4.38443 1.66844
lclavicle -1.20501e-14 -1.81746e-15 0
lhumerus -57.2604 -11.4908 96.2468
lradius 72.7022 -0 0
lwrist 12.9641 0 0
lhand -19.5221 -5.27927 0.00516223
lfingers 7.12502 0 0
lthumb 7.40973 25.2916 0.00557028
rclavicle -1.20501e-14 -1.81746e-15 0
rhumerus -32.3278 47.4141 -114.333
rradius 80.6281 -0 0
rwrist 6.58917 0 0
rhand -24.247 -21.1111 -0.0120899
rfingers 7.12502 0 0
rthumb 2.83482 -51.6567 -0.0147381
789
root 1.63242 16.4667 19.4353 -8.0443 73.4661 -13.9551
lfemur -38.0481 16.4482 -15.5404
ltibia 50.8104 -0 0
lfoot -21.7279 20.3606 -0.132632
ltoes 20.2485 -0 0
rfemur -14.6552 -23.4419 21.7171
rtibia 48.5666 -0 0
rfoot -21.8453 -35.6576 -0.811061
rtoes -26.7156 0 0
lowerback 0.877285 4.48739 -0.853127
upperback -1.06596 5.96454 -3.84539
thorax -1.25287 2.9932 -3.57929
lowerneck -5.18899 -6.47568 -0.779122
upperneck -2.83285 -8.48917 5.27517
head 0.264971 -4.17699 1.59491
lclavicle -1.98548e-14 -1.3631e-15 0
lhumerus -55.0349 -11.5684 93.5551
lradius 70.2743 -0 0
lwrist 12.2444 0 0
lhand -18.559 -5.08117 -0.0017206
lfingers 7.12502 0 0
lthumb 7.14156 24.1121 -0.00094176
rclavicle -1.98548e-14 -1.3631e-15 0
rhumerus -30.3765 48.1212 -110.668
rradius 77.9175 -0 0
rwrist 6.30267 0 0
rhand -23.2192 -20.104 -0.0128857
rfingers 7.12502 0 0
rthumb 2.64219 -49.5085 -0.0155467
790
root 1.62483 16.4845 19.5298 -6.20118 70.3474 -11.3236
lfemur -36.2839 15.8758 -14.7401
ltibia 48.5218 -0 0
lfoot -20.6386 19.8274 -0.133074
ltoes 19.5422 -0 0
rfemur -13.821 -22.493 20.6817
rtibia 46.1298 -0 0
rfoot -21.2808 -34.6276 -0.907565
rtoes -26.222 0 0
lowerback 0.792604 4.27539 -0.801508
upperback -1.03174 5.68332 -3.68448
thorax -1.18233 2.85168 -3.43397
lowerneck -4.94153 -6.16727 -0.73949
upperneck -2.72615 -8.08585 5.03652
head 0.24276 -3.97804 1.52395
lclavicle -2.76594e-14 -9.08733e-16 0
lhumerus -52.8349 -11.6196 90.723
lradius 67.8097 -0 0
lwrist 11.5671 0 0
lhand -17.633 -4.88517 -0.00760585
lfingers 7.12502 0 0
lthumb 6.89279 22.9896 -0.00657587
rclavicle -2.76594e-14 -9.08733e-16 0
rhumerus -28.5758 48.7425 -106.649
rradius 75.136 -0 0
rwrist 6.02617 0 0
rhand -22.229 -19.1464 -0.0137307
rfingers 7.12502 0 0
rthumb 2.46528 -47.4043 -0.0163651
